<svg width="546" height="87" viewBox="0 0 546 87" fill="none" xmlns="http://www.w3.org/2000/svg">
<path d="M0 85.32V1.32H21.72L31.32 27.24L40.68 1.32H62.4V85.32H45V30.6L31.08 65.04L17.28 30.6L17.16 85.32H0Z" fill="black"/>
<path d="M103.153 86.64C96.8331 86.64 91.1131 84.96 85.9931 81.6C80.8731 78.24 76.7931 73.36 73.7531 66.96C70.7931 60.48 69.3131 52.6 69.3131 43.32C69.3131 34.04 70.7931 26.2 73.7531 19.8C76.7931 13.32 80.8731 8.4 85.9931 5.04C91.1131 1.68 96.8331 0 103.153 0C109.473 0 115.193 1.68 120.313 5.04C125.433 8.4 129.473 13.32 132.433 19.8C135.473 26.2 136.993 34.04 136.993 43.32C136.993 52.6 135.473 60.48 132.433 66.96C129.473 73.36 125.433 78.24 120.313 81.6C115.193 84.96 109.473 86.64 103.153 86.64ZM103.153 68.28C105.633 68.28 107.833 67.4 109.753 65.64C111.753 63.88 113.313 61.16 114.433 57.48C115.633 53.8 116.233 49.08 116.233 43.32C116.233 37.56 115.633 32.84 114.433 29.16C113.313 25.48 111.753 22.76 109.753 21C107.833 19.24 105.633 18.36 103.153 18.36C100.673 18.36 98.4331 19.24 96.4331 21C94.5131 22.76 92.9531 25.48 91.7531 29.16C90.6331 32.84 90.0731 37.56 90.0731 43.32C90.0731 49.08 90.6331 53.8 91.7531 57.48C92.9531 61.16 94.5131 63.88 96.4331 65.64C98.4331 67.4 100.673 68.28 103.153 68.28Z" fill="black"/>
<path d="M164.786 85.32V18.6H140.786V1.32H209.426V18.6H185.426V85.32H164.786Z" fill="black"/>
<path d="M340.48 85.32V68.04H360.88V18.6H340.48V1.32H401.92V18.6H381.52V68.04H401.92V85.32H340.48Z" fill="black"/>
<path d="M443.153 86.64C436.833 86.64 431.113 84.96 425.993 81.6C420.873 78.24 416.793 73.36 413.753 66.96C410.793 60.48 409.313 52.6 409.313 43.32C409.313 34.04 410.793 26.2 413.753 19.8C416.793 13.32 420.873 8.4 425.993 5.04C431.113 1.68 436.833 0 443.153 0C449.473 0 455.193 1.68 460.313 5.04C465.433 8.4 469.473 13.32 472.433 19.8C475.473 26.2 476.993 34.04 476.993 43.32C476.993 52.6 475.473 60.48 472.433 66.96C469.473 73.36 465.433 78.24 460.313 81.6C455.193 84.96 449.473 86.64 443.153 86.64ZM443.153 68.28C445.633 68.28 447.833 67.4 449.753 65.64C451.753 63.88 453.313 61.16 454.433 57.48C455.633 53.8 456.233 49.08 456.233 43.32C456.233 37.56 455.633 32.84 454.433 29.16C453.313 25.48 451.753 22.76 449.753 21C447.833 19.24 445.633 18.36 443.153 18.36C440.673 18.36 438.433 19.24 436.433 21C434.513 22.76 432.953 25.48 431.753 29.16C430.633 32.84 430.073 37.56 430.073 43.32C430.073 49.08 430.633 53.8 431.753 57.48C432.953 61.16 434.513 63.88 436.433 65.64C438.433 67.4 440.673 68.28 443.153 68.28Z" fill="black"/>
<path d="M484.746 85.32V1.32H504.186L528.666 48.6L528.426 1.32H545.466V85.32H527.226L501.546 36.24L501.786 85.32H484.746Z" fill="black"/>
<path d="M249.2 35.32C249.2 26.4834 256.363 19.32 265.2 19.32H281.2C290.037 19.32 297.2 26.4834 297.2 35.32V67.32H265.2C256.363 67.32 249.2 60.1566 249.2 51.32V35.32Z" fill="black"/>
</svg>
